#N canvas 827 239 734 565 12;
#N canvas 733 172 450 300 (subpatch) 1;
#X obj -100 138 keyname;
#X obj -100 164 pack f s;
#X obj -100 417 t a a a;
#X obj 190 231 hradio 20 1 0 2 empty keyboard-define Teclado_Português 0 -8 0 10 #191919 #e1e1e1 #e1e1e1 0;
#N canvas 733 172 450 300 define-keyboard_layout 0;
#X obj 258 161 t a a;
#X obj 283 200 sel 0 1 2, f 52;
#X obj 283 311 s keyboard-define;
#X msg 283 285 label \$1;
#X msg 283 260 symbol QWERTY_keyboard;
#X msg 397 227 symbol Teclado_Português;
#X obj 258 338 outlet;
#X obj 258 136 inlet;
#X obj 349 74 loadbang;
#X msg 349 100 1;
#X connect 0 0 6 0;
#X connect 0 1 1 0;
#X connect 1 0 4 0;
#X connect 1 1 5 0;
#X connect 3 0 2 0;
#X connect 4 0 3 0;
#X connect 5 0 3 0 32.................M....73+++eC....O9+++eB....;
#X connect 7 0 0 0;
#X connect 8 0 9 0;
#X connect 9 0 0 0;
#X restore 126 145 pd define-keyboard_layout;
#X obj 257 584 route z x c v b n m;
#X obj -100 500 route 1 2 3 4 5 6 7;
#X obj 19 530 route q w e r t y u;
#X obj 138 558 route a s d f g h j;
#X obj 126 171 s keyboard-select;
#N canvas 733 172 450 300 (subpatch) 0;
#X obj 49 399 pack f 0;
#X obj 74 424 pack f 1;
#X obj 99 449 pack f 2;
#X obj 124 474 pack f 3;
#X obj 149 499 pack f 4;
#X obj 174 524 pack f 5;
#X obj 199 549 pack f 6;
#X obj 49 549 outlet;
#X obj 49 366 inlet;
#X obj 95 366 inlet;
#X obj 141 366 inlet;
#X obj 198 366 inlet;
#X obj 244 366 inlet;
#X obj 290 366 inlet;
#X obj 349 349 inlet;
#X connect 0 0 7 0;
#X connect 1 0 7 0;
#X connect 2 0 7 0;
#X connect 3 0 7 0;
#X connect 4 0 7 0;
#X connect 5 0 7 0;
#X connect 6 0 7 0;
#X connect 8 0 0 0;
#X connect 9 0 1 0;
#X connect 10 0 2 0;
#X connect 11 0 3 0;
#X connect 12 0 4 0;
#X connect 13 0 5 0;
#X connect 14 0 6 0;
#X restore -100 554 pd;
#X msg -100 239 \$2 \$1;
#X obj -100 329 fudiformat;
#X obj -100 355 fudiparse;
#X obj -100 202 spigot 0;
#X obj 14 32 tgl 25 0 empty tgl-set on 31 16 0 21 #191919 #e1e1e1 #e1e1e1 0 1;
#N canvas 733 172 450 300 (subpatch) 0;
#X obj 49 399 pack f 0;
#X obj 74 424 pack f 1;
#X obj 99 449 pack f 2;
#X obj 124 474 pack f 3;
#X obj 149 499 pack f 4;
#X obj 174 524 pack f 5;
#X obj 199 549 pack f 6;
#X obj 49 549 outlet;
#X obj 49 366 inlet;
#X obj 95 366 inlet;
#X obj 141 366 inlet;
#X obj 198 366 inlet;
#X obj 244 366 inlet;
#X obj 290 366 inlet;
#X obj 349 349 inlet;
#X connect 0 0 7 0;
#X connect 1 0 7 0;
#X connect 2 0 7 0;
#X connect 3 0 7 0;
#X connect 4 0 7 0;
#X connect 5 0 7 0;
#X connect 6 0 7 0;
#X connect 8 0 0 0;
#X connect 9 0 1 0;
#X connect 10 0 2 0;
#X connect 11 0 3 0;
#X connect 12 0 4 0;
#X connect 13 0 5 0;
#X connect 14 0 6 0;
#X restore 19 582 pd;
#N canvas 733 172 450 300 (subpatch) 0;
#X obj 49 399 pack f 0;
#X obj 74 424 pack f 1;
#X obj 99 449 pack f 2;
#X obj 124 474 pack f 3;
#X obj 149 499 pack f 4;
#X obj 174 524 pack f 5;
#X obj 199 549 pack f 6;
#X obj 49 549 outlet;
#X obj 49 366 inlet;
#X obj 95 366 inlet;
#X obj 141 366 inlet;
#X obj 198 366 inlet;
#X obj 244 366 inlet;
#X obj 290 366 inlet;
#X obj 349 349 inlet;
#X connect 0 0 7 0;
#X connect 1 0 7 0;
#X connect 2 0 7 0;
#X connect 3 0 7 0;
#X connect 4 0 7 0;
#X connect 5 0 7 0;
#X connect 6 0 7 0;
#X connect 8 0 0 0;
#X connect 9 0 1 0;
#X connect 10 0 2 0;
#X connect 11 0 3 0;
#X connect 12 0 4 0;
#X connect 13 0 5 0;
#X connect 14 0 6 0;
#X restore 138 611 pd;
#N canvas 733 172 450 300 (subpatch) 0;
#X obj 49 399 pack f 0;
#X obj 74 424 pack f 1;
#X obj 99 449 pack f 2;
#X obj 124 474 pack f 3;
#X obj 149 499 pack f 4;
#X obj 174 524 pack f 5;
#X obj 199 549 pack f 6;
#X obj 49 549 outlet;
#X obj 49 366 inlet;
#X obj 95 366 inlet;
#X obj 141 366 inlet;
#X obj 198 366 inlet;
#X obj 244 366 inlet;
#X obj 290 366 inlet;
#X obj 349 349 inlet;
#X connect 0 0 7 0;
#X connect 1 0 7 0;
#X connect 2 0 7 0;
#X connect 3 0 7 0;
#X connect 4 0 7 0;
#X connect 5 0 7 0;
#X connect 6 0 7 0;
#X connect 8 0 0 0;
#X connect 9 0 1 0;
#X connect 10 0 2 0;
#X connect 11 0 3 0;
#X connect 12 0 4 0;
#X connect 13 0 5 0;
#X connect 14 0 6 0;
#X restore 257 639 pd;
#X obj -100 743 * 7;
#X obj 19 743 * 7;
#X obj 138 743 * 7;
#X obj 257 743 * 7;
#X obj 19 769 + 3;
#X obj 138 769 + 7;
#X obj 257 769 + 11;
#X obj -100 769 + -1;
#X msg -349 614 -1 3 7 11;
#X msg -287 614 -9 -5 -1 3;
#X msg -204 614 7 11 3 6;
#X obj -250 729 unpack f f f f;
#X obj -349 574 sel 0 1 2;
#X obj -349 538 r tonnetz-set;
#N canvas 733 172 450 300 (subpatch) 0;
#X obj 162 789 % 12;
#X floatatom 162 815 5 0 0 0 - - - 12;
#X obj 149 615 t f f;
#X obj 151 846 outlet;
#X obj 99 749 spigot;
#X obj 172 751 spigot;
#X obj 228 619 inlet;
#X obj 228 645 sel 0 1;
#X msg 222 682 0 1;
#X msg 251 682 1 0;
#X obj 222 708 unpack f f;
#X obj 149 589 inlet;
#X connect 0 0 1 0;
#X connect 1 0 3 0;
#X connect 2 0 4 0;
#X connect 2 1 5 0;
#X connect 4 0 3 0;
#X connect 5 0 0 0;
#X connect 6 0 7 0;
#X connect 7 0 8 0;
#X connect 7 1 9 0;
#X connect 8 0 10 0;
#X connect 9 0 10 0;
#X connect 10 0 4 1;
#X connect 10 1 5 1;
#X connect 11 0 2 0;
#X restore -100 808 pd;
#X obj 394 771 r set-range;
#X obj -100 842 t a;
#X obj -100 1027 noteout;
#X obj 49 149 sel 0 1;
#X msg -2 243 label \$1;
#X msg -2 217 symbol off;
#X msg 90 217 symbol on;
#X obj -2 269 s tgl-set;
#X obj 12 82 hsl 128 17 0 127 0 0 velocity r-velocity Velocity 135 9 0 10 #191919 #e1e1e1 #e1e1e1 0 1;
#X obj 12 109 hsl 128 17 100 2000 0 0 duration r-duration Duration 135 9 0 10 #191919 #e1e1e1 #e1e1e1 0 1;
#X obj 817 29 loadbang;
#X obj 863 183 r midi-port-channel;
#X msg 863 209 label port_\$1;
#X obj 863 235 s r-midi-port-channel;
#X obj -100 469 spigot 1;
#N canvas 733 172 450 300 (subpatch) 0;
#X obj 162 789 % 12;
#X floatatom 162 815 5 0 0 0 - - - 12;
#X obj 149 615 t f f;
#X obj 151 846 outlet;
#X obj 99 749 spigot;
#X obj 172 751 spigot;
#X obj 228 619 inlet;
#X obj 228 645 sel 0 1;
#X msg 222 682 0 1;
#X msg 251 682 1 0;
#X obj 222 708 unpack f f;
#X obj 149 589 inlet;
#X connect 0 0 1 0;
#X connect 1 0 3 0;
#X connect 2 0 4 0;
#X connect 2 1 5 0;
#X connect 4 0 3 0;
#X connect 5 0 0 0;
#X connect 6 0 7 0;
#X connect 7 0 8 0;
#X connect 7 1 9 0;
#X connect 8 0 10 0;
#X connect 9 0 10 0;
#X connect 10 0 4 1;
#X connect 10 1 5 1;
#X connect 11 0 2 0;
#X restore 19 814 pd;
#N canvas 733 172 450 300 (subpatch) 0;
#X obj 162 789 % 12;
#X floatatom 162 815 5 0 0 0 - - - 12;
#X obj 149 615 t f f;
#X obj 151 846 outlet;
#X obj 99 749 spigot;
#X obj 172 751 spigot;
#X obj 228 619 inlet;
#X obj 228 645 sel 0 1;
#X msg 222 682 0 1;
#X msg 251 682 1 0;
#X obj 222 708 unpack f f;
#X obj 149 589 inlet;
#X connect 0 0 1 0;
#X connect 1 0 3 0;
#X connect 2 0 4 0;
#X connect 2 1 5 0;
#X connect 4 0 3 0;
#X connect 5 0 0 0;
#X connect 6 0 7 0;
#X connect 7 0 8 0;
#X connect 7 1 9 0;
#X connect 8 0 10 0;
#X connect 9 0 10 0;
#X connect 10 0 4 1;
#X connect 10 1 5 1;
#X connect 11 0 2 0;
#X restore 138 820 pd;
#N canvas 733 172 450 300 (subpatch) 0;
#X obj 162 789 % 12;
#X floatatom 162 815 5 0 0 0 - - - 12;
#X obj 149 615 t f f;
#X obj 151 846 outlet;
#X obj 99 749 spigot;
#X obj 172 751 spigot;
#X obj 228 619 inlet;
#X obj 228 645 sel 0 1;
#X msg 222 682 0 1;
#X msg 251 682 1 0;
#X obj 222 708 unpack f f;
#X obj 149 589 inlet;
#X connect 0 0 1 0;
#X connect 1 0 3 0;
#X connect 2 0 4 0;
#X connect 2 1 5 0;
#X connect 4 0 3 0;
#X connect 5 0 0 0;
#X connect 6 0 7 0;
#X connect 7 0 8 0;
#X connect 7 1 9 0;
#X connect 8 0 10 0;
#X connect 9 0 10 0;
#X connect 10 0 4 1;
#X connect 10 1 5 1;
#X connect 11 0 2 0;
#X restore 257 826 pd;
#X obj 63 385 r keyboard-select;
#X obj -100 908 + 60;
#X obj -100 634 route 1;
#X obj -100 934 makenote 100 100;
#X obj -22 880 r velocity;
#X obj 52 904 r duration;
#X obj 87 963 r midi-port-channel;
#X obj 19 608 route 1;
#X obj 138 656 route 1;
#X obj 257 676 route 1;
#X floatatom -184 946 5 0 0 0 - - - 12;
#X floatatom 188 889 5 0 0 0 - - - 12;
#X obj 225 33 tgl 25 0 set-range r-set-range open_range 28 10 0 17 #191919 #e1e1e1 #e1e1e1 0 1;
#X msg 817 55 \; r-velocity 100 \; r-duration 100 \; tgl-set 0 \; keyboard-define 0 \; r-midi-port-channel 0 \; r-set-range 0;
#X obj 360 198 r set-range;
#X obj 360 224 sel 0 1;
#X msg 360 301 label closed_range;
#X obj 360 327 s r-set-range;
#X msg 374 249 label open_range;
#X obj 213 109 hradio 20 1 0 4 midi-port-channel r-midi-port-channel port_0 90 10 0 17 #191919 #e1e1e1 #e1e1e1 0;
#X obj 213 82 hradio 20 1 0 5 octave r-octave octave 107 10 0 17 #191919 #e1e1e1 #e1e1e1 0;
#X obj -288 841 r octave;
#X obj -288 893 * 12;
#X floatatom -288 919 5 0 0 0 - - - 12;
#X listbox 299 425 10 0 0 0 - - - 0;
#X obj 455 642 sel 1;
#X floatatom 465 763 5 0 0 0 - - - 12;
#X msg 455 676 0;
#X obj 455 702 t b a;
#X obj 465 737 counter 0 4;
#X obj 509 656 sel 1;
#X msg 509 682 1;
#X obj 465 788 s r-octave;
#X obj 455 616 route Up Down i k;
#X obj -288 867 + 2;
#X connect 0 0 1 0;
#X connect 0 1 1 1;
#X connect 1 0 14 0;
#X connect 2 0 48 0;
#X connect 3 0 4 0;
#X connect 4 0 9 0;
#X connect 5 0 18 0;
#X connect 5 1 18 1;
#X connect 5 2 18 2;
#X connect 5 3 18 3;
#X connect 5 4 18 4;
#X connect 5 5 18 5;
#X connect 5 6 18 6;
#X connect 5 7 85 0;
#X connect 6 0 10 0;
#X connect 6 1 10 1;
#X connect 6 2 10 2;
#X connect 6 3 10 3;
#X connect 6 4 10 4;
#X connect 6 5 10 5;
#X connect 6 6 10 6;
#X connect 6 7 7 0;
#X connect 7 0 16 0;
#X connect 7 1 16 1;
#X connect 7 2 16 2;
#X connect 7 3 16 3;
#X connect 7 4 16 4;
#X connect 7 5 16 5;
#X connect 7 6 16 6;
#X connect 7 7 8 0;
#X connect 8 0 17 0;
#X connect 8 1 17 1;
#X connect 8 2 17 2;
#X connect 8 3 17 3;
#X connect 8 4 17 4;
#X connect 8 5 17 5;
#X connect 8 6 17 6;
#X connect 8 7 5 0;
#X connect 10 0 54 0;
#X connect 11 0 12 0;
#X connect 12 0 13 0;
#X connect 13 0 2 0;
#X connect 14 0 11 0;
#X connect 14 0 76 0;
#X connect 15 0 14 1;
#X connect 15 0 37 0;
#X connect 16 0 59 0;
#X connect 17 0 60 0;
#X connect 18 0 61 0;
#X connect 19 0 26 0;
#X connect 20 0 23 0;
#X connect 21 0 24 0;
#X connect 22 0 25 0;
#X connect 23 0 49 0;
#X connect 24 0 50 0;
#X connect 24 0 63 0;
#X connect 25 0 51 0;
#X connect 26 0 33 0;
#X connect 27 0 30 0;
#X connect 28 0 30 0;
#X connect 29 0 30 0;
#X connect 30 0 26 1;
#X connect 30 1 23 1;
#X connect 30 2 24 1;
#X connect 30 3 25 1;
#X connect 31 0 27 0;
#X connect 31 1 28 0;
#X connect 31 2 29 0;
#X connect 32 0 31 0;
#X connect 33 0 35 0;
#X connect 34 0 33 1;
#X connect 34 0 51 1;
#X connect 34 0 50 1;
#X connect 34 0 49 1;
#X connect 35 0 53 0;
#X connect 37 0 39 0;
#X connect 37 1 40 0;
#X connect 38 0 41 0;
#X connect 39 0 38 0;
#X connect 40 0 38 0;
#X connect 44 0 65 0;
#X connect 45 0 46 0;
#X connect 46 0 47 0;
#X connect 48 0 6 0;
#X connect 49 0 35 0;
#X connect 50 0 35 0;
#X connect 51 0 35 0;
#X connect 53 0 55 0;
#X connect 53 0 62 0;
#X connect 54 0 19 0;
#X connect 55 0 36 0;
#X connect 55 1 36 1;
#X connect 56 0 55 1;
#X connect 57 0 55 2;
#X connect 58 0 36 2;
#X connect 59 0 20 0;
#X connect 60 0 21 0;
#X connect 61 0 22 0;
#X connect 66 0 67 0;
#X connect 67 0 68 0;
#X connect 67 1 70 0;
#X connect 68 0 69 0;
#X connect 70 0 69 0;
#X connect 73 0 86 0;
#X connect 74 0 75 0;
#X connect 75 0 53 1;
#X connect 77 0 79 0;
#X connect 78 0 84 0;
#X connect 79 0 80 0;
#X connect 80 0 81 0;
#X connect 80 1 81 1;
#X connect 81 0 78 0;
#X connect 82 0 83 0;
#X connect 83 0 80 0;
#X connect 85 0 77 0;
#X connect 85 1 82 0;
#X connect 85 2 77 0;
#X connect 85 3 82 0;
#X connect 86 0 74 0;
#X coords 0 0 1 1 412 141 2 0 0;
#X restore 49 49 pd;
#X text 69 227 Use the following for notes: \; 123456 \, qwertyu \, asdfghj \, zxcvbnm;
#X text 69 307 Use "i" and "k" for octave change or "up" and "down" keys;
